<svg xmlns="http://www.w3.org/2000/svg" aria-hidden="true" overflow="hidden" style="position:absolute;width:0;height:0">
  <defs>
    <symbol id="icon-envelope" viewBox="0 0 39 32">
      <path d="M35.7 2.4h-32C1.7 2.4 0 4.1 0 6.1v22.1c0 2 1.7 3.7 3.7 3.7h32c2 0 3.7-1.6 3.7-3.7v-22c0-2.1-1.7-3.8-3.7-3.8zm0 2.5h.5L19.7 19.3 3.2 5l.5-.1h32zm0 24.6h-32c-.7 0-1.2-.6-1.2-1.3V7.6l16.4 14.2c.2.2.5.3.8.3s.6-.1.8-.3L36.9 7.6v20.6c0 .7-.5 1.3-1.2 1.3z"/>
    </symbol>
    <symbol id="icon-smartphone" viewBox="0 0 19 32">
      <path d="M16 1.9H2.8A2.8 2.8 0 0 0 0 4.7V29c0 1.7 1.3 3 2.8 3H16c1.6 0 2.8-1.3 2.8-2.9V4.7c0-1.6-1.2-2.8-2.8-2.8zM2.8 3.7H16c.5 0 1 .5 1 1v19.7H1.8V4.7c0-.5.4-1 1-1zM16 30.1H2.8a1 1 0 0 1-1-1v-2.8H17v2.8c0 .6-.4 1-.9 1z"/>
      <path d="M4.4 27.7a.8.8 0 0 1 0 1.2 1 1 0 0 1-1.3 0 .8.8 0 0 1 0-1.2 1 1 0 0 1 1.3 0z"/>
    </symbol>
    <symbol id="icon-antenna" viewBox="0 0 32 32">
      <path fill="var(--color1, #212121)" d="m30.8 22.1-8.5-8.5 1-4.6.7.1a2.2 2.2 0 1 0-2-1.4l-5 .6L9 .2a.5.5 0 0 0-.4-.2c-.1 0-.3 0-.4.2L6.7 1.7a.5.5 0 0 0 0 .7l.8.8A14.9 14.9 0 0 0 10 21l.2.1v6.7H3.6A2.7 2.7 0 0 0 1 30.5v1c0 .4.2.6.5.6H26c.3 0 .6-.2.6-.5v-1.1c0-1.5-1.2-2.7-2.7-2.7h-6.4V25a15 15 0 0 0 10.2-1.5h-.1l.8.9.4.1.4-.1 1.5-1.5a.5.5 0 0 0 0-.8zM23.3 6.2c.2-.2.4-.3.7-.3a1 1 0 0 1 0 2.2 1 1 0 0 1-.7-1.9zM22 9.7l-.6 3-1.1-1.2L22 9.7zm-.6-.9-1.9 2L18 9.2l3.4-.5zm2.6 20c.9 0 1.6.7 1.6 1.6v.5H2.1v-.5c0-.9.8-1.6 1.6-1.6H24zm-7.5-2.1v1h-5.3v-1h5.3zm-5.3-1.1v-4c0-1.3 1.2-2.4 2.7-2.4s2.6 1 2.6 2.3v4.1h-5.3zm6.4-1.7v-2.4c0-1.8-1.7-3.4-3.7-3.4-1.4 0-2.6.7-3.3 1.8A13.8 13.8 0 0 1 8.3 4L27 22.7a13.6 13.6 0 0 1-9.4 1.2h.1zm11.3-.7L7.9 2l.7-.7 8 8 13 13.2-.7.7z"/>
      <path fill="var(--color2, #2196f3)" d="M13.9 20.3a1.6 1.6 0 0 0 0 3.2 1.6 1.6 0 0 0 0-3.2zm.3 2-.3.1a.5.5 0 0 1 0-1 .5.5 0 0 1 .3.8z"/>
    </symbol>
    <symbol id="icon-clock" viewBox="0 0 32 32">
      <path fill="var(--color1, #212121)" d="M31.3 15.3a15.3 15.3 0 1 0-20 14.6h.7l.2-.4 4-12.3a2 2 0 1 0-1-3.6l-5-5.1a.6.6 0 0 0-1 .9l5.2 5c-.2.3-.2.6-.2 1 0 .5.3 1 .7 1.4l-3.7 11.7a14 14 0 1 1 10.7-.4h-.1l-.4-1.9a.6.6 0 0 0-1-.3l-3.9 3.4-.2.5c0 .3.2.5.4.6l5 1.6h.1a.6.6 0 0 0 .7-.8l-.4-1.8c5.5-2.4 9.3-7.8 9.3-14v-.1zM16 14.7a.6.6 0 0 1 0 1.2.6.6 0 0 1 0-1.2zm2 14.8 2.3-2 .6 3-2.8-1z"/>
      <path fill="var(--color2, #2196f3)" d="M15.4 3.2v1.3a.6.6 0 0 0 1.2 0V3.2a.6.6 0 1 0-1.2 0zM3.9 14.7a.6.6 0 0 0 0 1.2h1.3a.6.6 0 0 0 0-1.2H3.9zM28 15.9a.6.6 0 0 0 0-1.2h-1.3a.6.6 0 0 0 0 1.2H28z"/>
    </symbol>
    <symbol id="icon-diagram" viewBox="0 0 32 32">
      <path fill="var(--color2, #2196f3)" d="M15 15h1v4.8h-1V15zm4.2 2.1h1v2.7h-1V17zm-8.5 1.6h1v1h-1v-1zm-3.2-.5h1v1.6h-1v-1.6z"/>
      <path fill="var(--color1, #212121)" d="M1.6 28.3h25.6c.9 0 1.6-.7 1.6-1.6v-2.1c0-1-.7-1.6-1.6-1.6h-.5V9.7l3-2.9.7.2a1.6 1.6 0 1 0-1.5-1l-2.2 2.2V7c0-1-.8-1.6-1.6-1.6H3.7c-.9 0-1.6.7-1.6 1.6v16h-.5c-.9 0-1.6.7-1.6 1.6v2c0 1 .7 1.7 1.6 1.7zM30.4 4.8a.5.5 0 0 1 0 1.1.5.5 0 0 1 0-1zM3.2 7c0-.3.2-.6.5-.6h21.4c.2 0 .5.3.5.6v2.2l-1 1V8c0-.3-.3-.5-.6-.5H4.8c-.3 0-.5.2-.5.5v13.4c0 .3.2.5.5.5H24c.3 0 .5-.2.5-.5v-9.7l1-1V23H3.3V7zM8 13.9a1.6 1.6 0 1 0 1 2.7l1.9 1 .6-.1 4-4.5 3.8 3 .7-.1 3.4-3.2v8.1H5.3V8.6h18.2v2.6l-3.8 3.6-4-3h-.2l-.4.1-4 4.5-1.5-.7v-.2c0-.9-.7-1.6-1.6-1.6zm.5 1.6a.5.5 0 0 1-1 0 .5.5 0 0 1 1 0zm3.2 8.5h5.4v.6c0 .3-.3.5-.6.5h-4.2a.5.5 0 0 1-.6-.5V24zm-10.6.6c0-.3.2-.6.5-.6h9v.6c0 .8.8 1.6 1.7 1.6h4.2c1 0 1.6-.8 1.6-1.6V24h9c.4 0 .6.3.6.6v2c0 .4-.2.6-.5.6H1.6a.5.5 0 0 1-.5-.5v-2.1z"/>
    </symbol>
    <symbol id="icon-astronaut" viewBox="0 0 32 32">
      <path fill="var(--color2, #2196f3)" d="M32 4.5c0-.2-.3-.3-.5-.3l-1.9-.3-.8-1.7c-.2-.4-.8-.4-1 0L27 3.9l-2 .3a.5.5 0 0 0-.2.9L26 6.4l-.3 2c0 .1 0 .3.2.4.2.2.4.2.6 0l1.7-.8 1.7.9h.3a.5.5 0 0 0 .5-.6l-.3-1.9 1.3-1.3a.5.5 0 0 0 .2-.6zM29.5 6c-.1 0-.2.2-.1.4l.1 1.1-1-.5a.5.5 0 0 0-.5 0l-1 .5.2-1v-.2l-.1-.3-.8-.8 1.1-.2c.2 0 .3-.1.4-.3l.5-1 .5 1c0 .2.2.3.4.3l1.1.2-.8.8zm-3.4 14.6h-1v1h1v-1zm0 2.2h-1v1h1v-1zm1.1-1.1h-1v1h1v-1zm-2.1 0H24v1h1v-1zm-2.7 4.8h-1v1h1v-1zm0 2.1h-1v1h1v-1zm1-1h-1v1h1v-1zm-2 0h-1.1v1h1v-1zM16 24.3h-1v1h1v-1zm0 2h-1v1.2h1v-1.1zm1-1h-1v1h1v-1zm-2 0h-1.1v1h1v-1zM5.8 6.1h-1v1h1v-1zm0 2.2h-1v1h1v-1zm1-1.1H6v1h1v-1zm-2.1 0h-1v1h1v-1z"/>
      <path fill="var(--color1, #212121)" d="M24.7 14.2c-.3-.4-.7-.7-1.2-.7h-.2c-.4 0-.8 0-1.1.3l-1.3 1-1.9 1.4-1.3-.6a7 7 0 0 0-2.9-13.2A7 7 0 0 0 9 13H6l-3.2 1.6-2 1A1.8 1.8 0 0 0 .2 18c.2.4.6.7 1 .8l.6.1c.3 0 .6 0 .8-.2L4 18l2.3-1.2h1.3l-5.4 5.4-1.3 1.3c-.3.3-.5.8-.5 1.2 0 1 .7 1.7 1.6 1.7.5 0 .9-.2 1.2-.5l1.3-1.3 1.8-1.3.9.9-3.1 3c-.3.4-.5.8-.5 1.3A1.7 1.7 0 0 0 5.2 30c.5 0 .9-.1 1.2-.5l4.5-4.4 5.2-5.7 3.5.5a.5.5 0 0 0 .2 0l.1-.1 3.3-2.1 1.3-1.3a1.8 1.8 0 0 0 .2-2.3zM2.1 17.8a.7.7 0 0 1-.5 0 .7.7 0 0 1-.2-1.2l1.3-.7.3 1 .1.3-1 .6zm3.5-1.9-1.5.8-.3-.7-.2-.5 2-1v1.4zm15.1-6.6c0 1-.2 1.8-.6 2.6l-4.2-2c0-.5-.3-1-.7-1.3l1.4-4.9a6 6 0 0 1 4.1 5.6zM9 9.3a5.9 5.9 0 0 1 6.7-5.8L14 8.3c-1 0-1.9.8-1.9 1.8S13 12 14 12c.7 0 1.3-.4 1.6-1l3.9 1.8A5.9 5.9 0 0 1 8.9 9.3zm6 .8a.8.8 0 0 1-1.6 0c0-.4.3-.8.8-.8s.8.4.8.8zm-12.4 15a.6.6 0 0 1-.9 0 .6.6 0 0 1 0-.8l1-1 .8.9-1 1zM5.7 29a.6.6 0 0 1-.9 0 .6.6 0 0 1 0-.9l1-1 .8 1-1 .9zm3.5-3.5-1.8 1.8-.9-.9 1.8-1.7.1-.2V24h-.1l-1.6-1.7h-.1l-.1-.1H6l-1.8 1.4-.9-1 2.4-2.3 4.4 4.3-1 1zm6.8-7h-.4v.1l-4.8 5.2-4.3-4.2 2.8-2.9a.5.5 0 0 0-.4-.9H6.7v-1.6h3.1a7 7 0 0 0 5 2.2c.5 0 .9 0 1.3-.2l.1.1 2.4 1 .2.7.2 1-3-.5zm4 .2-.3-1.6 1.5-1 .9 1.2-2 1.4zm3.8-2.9-.9.8-.9-1.2.8-.6c.2-.2.4-.2.6-.2a.7.7 0 0 1 .4 1.2z"/>
      <path fill="var(--color1, #212121)" d="m13.6 18.5-2.1-2a.5.5 0 0 0-.8 0l-2.1 2-.2.4c0 .1 0 .3.2.4l2.1 2.1a.5.5 0 0 0 .8 0l2.1-2.1a.5.5 0 0 0 0-.8zm-2.5 1.8-1.4-1.4 1.4-1.4 1.4 1.4-1.4 1.4zm6-15.2L17 6s1.7.5 1.7 2.2h1.1c0-2-1.7-3-2.5-3.2zm2.6 4.2h-1v1h1v-1z"/>
    </symbol>
    <symbol id="icon-twitter" viewBox="0 0 32 32">
      <path d="M32 6c-1.1.6-2.4 1-3.7 1.1 1.3-.8 2.3-2 2.8-3.6a14 14 0 0 1-4 1.6h-.2a6.5 6.5 0 0 0-11.3 4.5c0 .5 0 1 .2 1.5A18.6 18.6 0 0 1 2.2 4.2a7 7 0 0 0-.9 3.3c0 2.3 1.2 4.3 3 5.5-1.1 0-2.2-.4-3-.9v.1c0 3.2 2.2 5.8 5.2 6.5l-1.6.2-1.3-.1a6.6 6.6 0 0 0 6.1 4.5 13 13 0 0 1-8.1 2.8H-.2 0A18.5 18.5 0 0 0 28.7 9.5c1.3-1 2.4-2 3.3-3.4z"/>
    </symbol>
    <symbol id="icon-facebook" viewBox="0 0 32 32">
      <path d="M21.3 5.3h3v-5C23 0 21.6 0 20 0c-4.2 0-7.1 2.6-7.1 7.5V12H8.2v5.7H13V32h5.7V17.7H23l.7-5.7h-5.2V8c0-1.6.4-2.7 2.7-2.7z"/>
    </symbol>
    <symbol id="icon-linkedin" viewBox="0 0 32 32">
      <path d="M32 32V20.3c0-5.8-1.2-10.2-8-10.2a7 7 0 0 0-6.2 3.4h-.1v-2.9h-6.4V32H18V21.4c0-2.8.6-5.5 4-5.5s3.5 3.2 3.5 5.7V32H32zM.5 10.6h6.7V32H.5V10.6zM3.8 0A3.8 3.8 0 0 0 0 3.8a4 4 0 0 0 3.8 4c2.2 0 3.9-1.8 3.9-4S6 0 3.8 0z"/>
    </symbol>
    <symbol id="icon-instagram" viewBox="0 0 32 32">
      <path d="M32 9.4c-.1-1.7-.4-2.9-.8-3.9s-1-2-1.8-2.8A8 8 0 0 0 26.6.9a10 10 0 0 0-4-.8 108.2 108.2 0 0 0-17 .7c-1.1.5-2 1-2.9 1.9C2 3.5 1.3 4.4 1 5.5.5 6.5.2 7.7.2 9.4a108.2 108.2 0 0 0 .7 17 8 8 0 0 0 1.8 3c.8.7 1.8 1.4 2.9 1.8 1 .4 2.2.6 3.9.7a117.3 117.3 0 0 0 17-.7 8.2 8.2 0 0 0 4.7-4.7c.4-1 .7-2.2.8-3.9V9.4zm-3 13c0 1.6-.2 2.5-.5 3a5.3 5.3 0 0 1-3 3c-.6.3-1.4.6-3 .6a112.7 112.7 0 0 1-15.9-.5 5 5 0 0 1-1.8-1.2 5 5 0 0 1-1.2-1.8c-.2-.6-.5-1.5-.5-3a112.7 112.7 0 0 1 .5-16 7 7 0 0 1 1.2-1.8 5 5 0 0 1 1.8-1.1 8 8 0 0 1 3-.6 114.2 114.2 0 0 1 16 .5 5 5 0 0 1 1.7 1.2 5 5 0 0 1 1.2 1.9c.3.5.5 1.4.6 3a112.7 112.7 0 0 1 0 12.9z"/>
      <path d="M16 7.8A8.2 8.2 0 0 0 7.9 16a8.2 8.2 0 0 0 16.5 0c0-4.5-3.7-8.2-8.2-8.2zm0 13.5a5.3 5.3 0 0 1 0-10.6 5.3 5.3 0 1 1 0 10.6zM26.6 7.5a2 2 0 0 1-3.8 0 2 2 0 0 1 3.8 0z"/>
    </symbol>
    <symbol id="icon-Logo1" viewBox="0 0 57 32">
      <path d="M20.3 3.7 24 7.3h-7v17.1h18.2V18l3.7 3.5V3.7H20.3zM35 17.5l-10.6-10H35v10zm-3.3 4.4H20V10.4h.9V21h11v.8zm-9 4.8-.4 1-.4-1h-.4L22 28v.7h.4V28l.6-1.2h-.4zm.6 2 .1-.5h.8l.1.4h.4l-.8-1.9h-.3l-.7 2h.4zm.5-1.6.3.8h-.6l.3-.8zm1.7.8v.2l.1.4.5.1.5-.1v.1h.4l-.2-.3.1-.6h-.3v.4l-.4-.5h.1l.2-.3v-.5l-.4-.1-.3.1-.2.4v.2l.2.2-.3.3zm.9.4h-.5l-.1-.2.1-.3.5.5zm-.4-.9V27h.3v.3h-.1l-.2.1zm3.1 1c.2 0 .2-.2.3-.4H29l-.1.3h-.6l-.1-.6v-.1l.1-.5.3-.1h.3l.1.3h.4c0-.2-.1-.3-.3-.4l-.5-.2-.4.1-.3.3v1.1l.3.3.4.1.5-.1zm2-.2v-1.1l-.3-.3-.4-.1-.4.1c-.2 0-.2.2-.3.3l-.1.5v.6l.4.3.4.1h.4l.3-.4zm-.4-1 .1.4v.6l-.4.2c-.2 0-.3 0-.4-.2v-1.1l.4-.1.3.1z"/>
    </symbol>
    <symbol id="icon-Logo2" viewBox="0 0 57 32">
      <path d="M26.7 3.2h-1.3c-2 0-4 .6-5.7 1.4l-.2.1v11.8l.6-.2a20.6 20.6 0 0 1 5.8-1V17h-.6c-1.2 0-2.4.2-3.5.5h.2c-1.5.4-2.9 1-4 1.6V3.7c1.2-.7 2.6-1.3 4-1.7h.2c1.1-.3 2.5-.5 3.9-.5h.2a15.8 15.8 0 0 1 2.7.3v1.6c-.5-.2-1.1-.3-1.8-.3h-.5zm2.7 1.5h1c1.5 0 3-.1 4.3-.5h-.1c1.5-.3 2.8-.9 4-1.6v15c-1.3.7-2.6 1.3-4.1 1.6h-.1c-1.2.4-2.5.6-4 .6-1 0-2-.2-3-.4v-15a11.6 11.6 0 0 0 2 .3zm7.6.1-.6.2-1.5.5c-1.3.3-2.8.5-4.4.5H29v12h.4l1 .1a15 15 0 0 0 3.7-.5H34c1-.2 2-.6 2.8-1h.2V4.8zM19 24.1a.8.8 0 0 0-.5-.2H18c-.2.1-.4.3-.4.5v2.8l.2.2.3.2h.6c.3-.2.5-.5.5-.8v-.3h-.5v.4l-.1.1h-.5v-2.5l.2-.1.3.1v.5h.6v-.6l-.2-.3zm3.2 0a1 1 0 0 0-1-.2l-.4.5V27l.2.3.3.1.3.1c.2 0 .4 0 .6-.2a.8.8 0 0 0 .3-.7v-2l-.1-.3-.2-.3zm-.2 2.6c0 .1 0 .2-.2.3a.4.4 0 0 1-.4 0l-.2-.3v-2s0-.2.2-.2a.4.4 0 0 1 .5 0v2.2zm4.3.9v-3.7h-.5l-.6 2-.7-2H24v3.7h.5v-2.3L25 27h.3l.5-1.6v2.3h.5zm3-3.4L29 24l-.3-.1h-.8v3.7h.5V26h.7l.3-.3.1-.4v-.8l-.2-.3zm-.3 1v.3l-.1.1h-.5v-1.2h.5l.1.2v.7zm2.8-1.3h-.4l-.8 3.7h.5l.1-.8h.7l.2.8h.5l-.8-3.7zm-.5 2.4.3-1.3.2 1.3h-.5zm3.9-.2-.8-2.2h-.5v3.7h.5v-2.2l.8 2.2h.5v-3.7h-.5v2.2zm3.2-2.2-.4 1.5-.5-1.5H37l.7 2.1v1.6h.5V26l.8-2h-.5zm-20.8 4.7h.3v.7h.1v-.7h.3v-.1h-.7v.1zm2.1-.1-.3.8h.2v-.2h.4v.2h.2l-.3-.8h-.2zm0 .5.1-.3.1.3h-.2zm2.1 0h.2v.1h-.4V29c0-.2 0-.3.2-.3l.2.1h.2c0-.2-.2-.2-.4-.2h-.3a.4.4 0 0 0-.1.4l.1.3.3.1.4-.1V29h-.4v.1zm2.2-.5h-.2v.8h.6v-.1H24v-.7zm1.8 0h-.2v.8h.2v-.8zm1.7.5-.3-.5H27v.8h.2v-.5l.3.5h.2v-.8h-.2v.5zm1.6 0h.5v-.2H29v-.2h.5v-.1H29v.8h.6v-.1h-.5v-.3zm4-.2h-.4v-.3h-.2v.8h.2V29h.3v.4h.2v-.8H33v.3zm1.5.1h.5v-.1h-.5v-.2h.5v-.1h-.6v.8h.6v-.1h-.5v-.3zm2.2 0c.2 0 .2 0 .2-.2v-.2h-.7v.8h.2V29h.2l.2.3h.2l-.1-.2-.2-.2zm-.2 0v-.3h.2v.2h-.1zm1.9 0h.4v-.1h-.4v-.2h.4v-.1h-.6v.8h.6v-.1h-.4v-.3z"/>
    </symbol>
    <symbol id="icon-Logo4" viewBox="0 0 57 32">
      <path d="M12.9 11.3c-1.3 0-2.3.9-2.3 2 0 1.2 1 2 2.3 2 1.3 0 2.3-.8 2.3-2 0-1.1-1-2-2.3-2zm17-.7c0-1.6-.6-3.1-1.9-4.2a7.3 7.3 0 0 0-9.5 0 5.7 5.7 0 0 0-2 4.2v8.7S30 18 30 10.6zM6 22.2c0 1 .5 2.1 1.3 2.9s2.1 1.2 3.3 1.2c1.3 0 2.5-.4 3.3-1.2s1.4-1.8 1.4-3v-6s-9.3 1-9.3 6zm4.6 1-.6-.1-.5-.5a1 1 0 0 1 0-.7c0-.2.1-.4.3-.5l.6-.3a1.4 1.4 0 0 1 .7 0l.5.5c.1.2.3.3.3.6l-.1.4-.3.3-.4.3h-.5zm9.5-.6h-1v1h-.4v-2.3H20v.4h-1v.6h.9v.3zm2.2-.1-.1.6-.4.4a1 1 0 0 1-.4.1 1 1 0 0 1-.8-.5h-.1l-.1-.6v-.7a.9.9 0 0 1 1-.5l.4.1.4.4.1.6zm-.5-.1v-.6l-.4-.1-.4.1-.2.6c0 .3 0 .5.2.6l.3.2c.2 0 .3 0 .4-.2l.1-.5v-.1zm2 .6v-.2l-.4-.2-.4-.1c-.2-.2-.4-.4-.4-.6l.1-.3.3-.2.5-.1h.4l.3.3.1.4h-.5v-.3H23l-.1.2.1.2.3.1.6.3.2.5c0 .2 0 .3-.2.4a1.2 1.2 0 0 1-1.1.1.8.8 0 0 1-.3-.2l-.1-.4h.4c0 .2.2.3.5.3h.2l.1-.2zm2.5-1.3h-.7v1.9h-.4v-2h-.7v-.3h1.8v.4zm1.7.9h-1v.6h1v.4h-1.5v-2.3H28v.4h-1v.5h.9v.4zm1.2.1h-.3v.9h-.5v-2.3h.8c.3 0 .5 0 .7.2s.2.3.2.5l-.1.4-.3.2.5 1h-.5l-.5-.9zm-.3-.3h.3l.3-.1.1-.3v-.2l-.4-.1h-.3v.7zm2.8.4v.8h-.5v-2.3h1.4l.3.4v.4l-.1.5a1 1 0 0 1-.7.2h-.4zm0-.4h.7l.1-.3v-.3l-.4-.1h-.4v.7zm3 .2h-1v.6h1.1v.4h-1.5v-2.3h1.5v.4h-1v.5h.9v.4zm2.1-1h-.6v2h-.5v-2H35v-.3h1.8v.4zm1.7 1h-1v.6h1.1v.4H37v-2.3h1.5v.4h-1v.5h.9v.4zm1.3.1h-.4v.9h-.5v-2.3h.9c.2 0 .4 0 .6.2s.2.3.2.5v.4l-.4.2.5 1H40l-.4-.9zm-.4-.3h.4l.2-.1.1-.3v-.2l-.3-.1h-.4v.7zm2.7.6v-.2l-.4-.2-.4-.1c-.2-.2-.4-.4-.4-.6l.1-.3.3-.2.5-.1h.4l.3.3.1.4H42v-.3h-.6v.4l.3.1.6.3.2.5c0 .2 0 .3-.2.4a1.2 1.2 0 0 1-1 .1.8.8 0 0 1-.4-.2l-.1-.4h.4c0 .2.2.3.5.3h.2l.1-.2z"/>
    </symbol>
    <symbol id="icon-Logo3" viewBox="0 0 57 32">
      <path d="m19.4 26.2.2.1-.3.2-.5.1h-.4a1 1 0 0 1-.5-.5l-.2-.5c0-.3.2-.5.3-.7l.4-.2h.9l.3.2-.1.1h-.4l-.2-.1h-.2a1 1 0 0 0-.3 0l-.2.2-.2.2v.6c0 .1 0 .2.2.3l.2.1h.5l.4-.1zm3.4-.6-.1.4-.2.3a1 1 0 0 1-.4.2 1.4 1.4 0 0 1-.9 0 1 1 0 0 1-.3-.2l-.2-.3a1 1 0 0 1 0-.8l.2-.3.3-.2a1.4 1.4 0 0 1 1 0l.3.2a.9.9 0 0 1 .3.7zm-.3 0v-.3L22 25a1 1 0 0 0-.6 0l-.3.2-.1.2a1 1 0 0 0 0 .7c0 .1.2.3.4.3h.6l.3-.1.1-.3v-.3zm2.6.4v-.1l.8-1.2h.4v1.9H26V25l-.8 1.1v.1H25l-.8-1.3v1.6h-.3v-2h.3v.1L25 26zm2.8-.1v.7h-.3v-2h.6l.4.1.2.1.2.2v.3c0 .2 0 .3-.2.4l-.2.1h-.7zm0-.2h.5l.2-.2.1-.2V25a.6.6 0 0 0-.4-.1h-.4v.8zm3.9.9h-.3l-.3-.5h-1l-.2.4h-.3l.9-1.8h.3l.9 1.9zm-1.5-.7h.9l-.4-.8v-.2.1l-.1.1-.4.8zm2.7-1.2 1.3 1.5v-1.5h.3v1.9h-.2L33 25v1.5h-.3v-2h.2zm3.7 1.1v.8h-.2v-.8l-.8-1.1h.3l.5.8.1.1v-.1l.6-.8h.4l-.9 1.1zM25 21.5h.4c2-.8 3.6-2 4.8-3.6s1.7-3.4 1.7-5.3l-2.2-1.8c.4 2 .2 4-.6 5.9s-2.2 3.5-4 4.8z"/>
      <path d="M24.2 21.4c2-1.2 3.5-3 4.3-5s1-4 .4-6.1l-3-2.7A11.5 11.5 0 0 1 24 21.4zm10.4-6.6c-.5 2-1.8 4-3.6 5.3-.5.4-1 .8-1.7 1 1.4-.3 2.8-1 4-1.9s2-2 2.5-3.3l-1.2-1z"/>
      <path d="M34.1 14.5 32.3 13c0 1.8-.6 3.5-1.6 5s-2.6 2.7-4.4 3.5h1.2c1.7-.6 3.2-1.6 4.3-2.8s2-2.6 2.3-4.2zm-9.7-8-2.1-1.9a10 10 0 0 0-4.7 3.3 7.8 7.8 0 0 0 .4 10.3 10 10 0 0 0 5.5 3c2-2 3-4.5 3.2-7.2s-.6-5.3-2.3-7.5zM39 14.3c0-2.4-1-4.6-3-6.2a11.2 11.2 0 0 0-10.7-2l13 11.3c.5-1 .7-2 .7-3.1z"/>
    </symbol>
    <symbol id="icon-Logo5" viewBox="0 0 57 32">
      <path d="M14.3 23.9a.8.8 0 0 1 .2.5l-.1.3c0 .2-.1.3-.2.3a1.4 1.4 0 0 1-1 .3h-1.5V22h1.6c.3 0 .6 0 .8.2l.2.3v.8l-.6.3c.3 0 .4.1.6.3zm-1.8-.5h.6l.4-.1.1-.2v-.5a.7.7 0 0 0-.5-.1h-.6v.9zm1 1.2.2-.1V24l-.1-.1a.7.7 0 0 0-.4-.2h-.7v1h.6c.2 0 .3 0 .5-.2zm3.9.7-.9-1.3h-.3v1.3h-.7V22h1.4c.4 0 .7 0 1 .3a1 1 0 0 1 .2.7c0 .2 0 .5-.2.6l-.6.4.9 1.3h-.8zm-1.2-1.8h.6c.4 0 .6-.1.6-.5v-.2l-.1-.1a.7.7 0 0 0-.5-.2h-.6v1zm5.1 1.1H20l-.3.7H19l1.3-3.3h.8l1.4 3.3h-.8l-.3-.7zm-.2-.5-.5-1.4-.5 1.4h1zm5.2 1.2h-.7L24 23v2.3h-.7V22h.7l1.6 2.2V22h.7v3.3zm4.1-.8-.6.6-1 .2h-1.3V22h1.3c.4 0 .7 0 1 .2.2.1.5.3.6.6.2.2.2.5.2.8l-.2.9zm-.8 0 .3-.9c0-.3-.1-.5-.3-.8a1.3 1.3 0 0 0-1-.2h-.4v2h.5c.4 0 .7 0 .9-.2zm-7.8-21s9.3 3.2 9 7.9v7.8s-9.2-3.2-9-7.8V3.6zm17.4 13.9c1.7-1.1 3.8-1.8 5.9-2V13a12 12 0 0 0-6 4.5z"/>
      <path d="M38.1 18.2c1.5-2.6 4-4.7 7-5.7v-7S31.8 10 32 16.5v11.2l1.5-.6v-1c.4-3.1 2-6 4.5-8z"/>
      <path d="M36.9 22.4c0-.8.2-1.5.4-2.3a10.4 10.4 0 0 0-2.8 6.8l2.8-1.4-.2.2a9.2 9.2 0 0 1-.2-3.3zm.5 0a9.8 9.8 0 0 0 .2 3c3.6-2 7.6-5 7.5-8.8v-.3c-2.6.3-5 1.3-6.9 3-.4.9-.7 2-.8 3.1z"/>
    </symbol>
    <symbol id="icon-Logo6" viewBox="0 0 57 32">
      <path d="M28.5 14.6a1.6 1.6 0 0 1-.3-1V12c0-.5 0-.8.3-1 .2-.3.6-.4 1-.4.6 0 1 0 1.1.3.3.3.4.6.3 1v.3h-.8v-.8l-.2-.2h-.6l-.2.3v2.3l.1.4.2.2a.5.5 0 0 0 .2 0h.3l.1-.3v-.8h1v.4c0 .4-.2.7-.4 1-.2.2-.5.3-1 .3s-.9-.1-1.1-.4zm3.6 0c-.2-.2-.3-.6-.3-1V12c0-.5.1-.8.3-1s.6-.4 1.1-.4c.6 0 1 .1 1.1.3.3.3.4.6.4 1v1.7c0 .4-.1.8-.4 1s-.5.4-1 .4-1-.1-1.2-.4zm1.6-.4v-2.4a.9.9 0 0 0 0-.5l-.2-.1a.5.5 0 0 0-.3 0H33l-.2.1v3h.2a.6.6 0 0 0 .5 0h.2zm2-3.6h1l.7 3 .7-3h1V15h-.7v-3l-.7 3H37l-.7-3v3h-.8l.1-4.3zm4.5 0h1.4c.9 0 1.3.4 1.3 1.2 0 .8-.4 1.2-1.3 1.2H41v2h-1v-4.4zm1.2 1.9a.7.7 0 0 0 .5-.2l.2-.5v-.4h-.2v-.2a1 1 0 0 0-.4 0H41v1.3h.3zm2.8-1.9h1l1 4.3h-.9l-.2-1h-.8l-.2 1h-.9l1-4.3zm.8 2.8-.3-1.8-.3 1.8h.6zm2-2.8h.6l1.2 2.5v-2.5h.8V15H49l-1.2-2.5V15H47v-4.3zm4.4 2.7-1-2.7h.8l.6 1.7.6-1.7h.8l-1 2.7v1.6h-.8v-1.6zm-21.5 3.5v.2h-.7v1.8h-.4V17h-.7v-.2h1.8zm2.3 2H32l-.3-.5h-1l-.2.4v.1H30l.9-2h.3l1 2zm-1.5-.7h.9l-.4-.8V17H31v.2l-.4.8zm3 .5h.2a1 1 0 0 0 .3 0l.1-.1V18H34v-.2h.6v.8l-.4.2a1.6 1.6 0 0 1-.5 0h-.4l-.4-.3a1 1 0 0 1-.2-.3v-.8l.2-.3.4-.2h.5a1.8 1.8 0 0 1 .4 0 1 1 0 0 1 .4.2h-.1v.1h-.2l-.1-.1h-.4a1 1 0 0 0-.4 0l-.3.1-.1.3a1 1 0 0 0 0 .7l.2.2.2.2h.4zm3 0h1v.2h-1.3v-2h.3v1.8zm2 .2h-.3v-2h.3v2zm1.1-2 1.4 1.6v-1.6h.3v2h-.3l-1.3-1.5v1.5h-.3v-2h.2zm4 0v.2h-1.1v.7h.8v.2h-.8v.7h1v.2h-1.4v-2h1.5zM11.3 4.6 25 8v11.8l-13.7-3.4V4.6zm-.9-1V17l15.5 3.8V7.4L10.4 3.6z"/>
      <path d="M18.7 27 3.2 23.2V9.8l15.5 3.8V27z"/>
      <path d="m10.7 4.5 13.5 3.3-5.7 5L4.9 9.4l5.8-5zm-.3-.9L3.2 9.8l15.5 3.8L26 7.4 10.4 3.6zm9.2 22.7 6.3-5.5-6.3-1.5v7z"/>
    </symbol>
    <symbol id="icon-close-black-18dp-2-1" viewBox="0 0 32 32"> 
      <path d="M26.667 7.303l-1.97-1.97-7.808 7.808-7.808-7.808-1.97 1.97 7.808 7.808-7.808 7.808 1.97 1.97 7.808-7.808 7.808 7.808 1.97-1.97-7.808-7.808 7.808-7.808z"></path>
    </symbol>
    <symbol id="icon-close-black" viewBox="0 0 32 32">
      <path d="M26.667 7.303l-1.97-1.97-7.808 7.808-7.808-7.808-1.97 1.97 7.808 7.808-7.808 7.808 1.97 1.97 7.808-7.808 7.808 7.808 1.97-1.97-7.808-7.808 7.808-7.808z"></path>
    </symbol>
          <symbol id="icon-send" viewBox="0 0 31 32">
      <path d="M30.72 0.057l-30.72 17.274 9.818 3.635 15.142-14.191-11.518 15.533 0.009 0.004-0.012-0.004v8.459l5.506-6.421 6.974 2.582 4.8-26.871z"></path>
      </symbol>
      <symbol id="icon-check" viewBox="0 0 34 32">
      <path d="M4.267 0h25.6c2.356 0 4.267 1.91 4.267 4.267v23.467c0 2.356-1.91 4.267-4.267 4.267h-25.6c-2.356 0-4.267-1.91-4.267-4.267v-23.467c0-2.356 1.91-4.267 4.267-4.267z"></path>
      <path stroke-linejoin="miter" stroke-linecap="butt" stroke-miterlimit="4" stroke-width="0.4267" d="M8.442 16.537l-0.147-0.14-2.205 2.088 7.767 7.41 16.318-15.567-2.19-2.089-14.128 13.465-5.416-5.167z"></path>
      </symbol>
      <symbol id="icon-email" viewBox="0 0 32 32">
      <path d="M26.667 5.333h-21.333c-1.467 0-2.653 1.2-2.653 2.667l-0.013 16c0 1.467 1.2 2.667 2.667 2.667h21.333c1.467 0 2.667-1.2 2.667-2.667v-16c0-1.467-1.2-2.667-2.667-2.667zM26.133 11l-9.427 5.893c-0.427 0.267-0.987 0.267-1.413 0l-9.427-5.893c-0.333-0.213-0.533-0.573-0.533-0.96 0-0.893 0.973-1.427 1.733-0.96l8.933 5.587 8.933-5.587c0.76-0.467 1.733 0.067 1.733 0.96 0 0.387-0.2 0.747-0.533 0.96z"></path>
      </symbol>
      <symbol id="icon-phone" viewBox="0 0 32 32">
      <path d="M24.882 19.773l-3.268-0.373c-0.785-0.090-1.557 0.18-2.11 0.733l-2.367 2.367c-3.641-1.853-6.626-4.825-8.478-8.478l2.38-2.38c0.553-0.553 0.823-1.325 0.733-2.11l-0.373-3.242c-0.154-1.299-1.248-2.277-2.56-2.277h-2.226c-1.454 0-2.663 1.209-2.573 2.663 0.682 10.987 9.469 19.761 20.443 20.443 1.454 0.090 2.663-1.119 2.663-2.573v-2.226c0.013-1.3-0.965-2.393-2.264-2.547z"></path>
      </symbol>
      <symbol id="icon-person" viewBox="0 0 32 32">
      <path d="M16 16c2.947 0 5.333-2.387 5.333-5.333s-2.387-5.333-5.333-5.333c-2.947 0-5.333 2.387-5.333 5.333s2.387 5.333 5.333 5.333zM16 18.667c-3.56 0-10.667 1.787-10.667 5.333v1.333c0 0.733 0.6 1.333 1.333 1.333h18.667c0.733 0 1.333-0.6 1.333-1.333v-1.333c0-3.547-7.107-5.333-10.667-5.333z"></path>
      </symbol>
      <symbol id="icon-check-1" viewBox="0 0 42 32">
      <path fill="#fff" style="fill: var(--color1, #fff); stroke: var(--color1, #fff)" stroke="#fff" stroke-linejoin="miter" stroke-linecap="butt" stroke-miterlimit="4" stroke-width="0.64" d="M6.4 15.36l-0.32-0.32-3.2 2.88v0.32l11.2 10.88h0.32l24.32-23.040v-0.32l-3.2-2.88-21.12 20.16-8-7.68z"></path>
      </symbol>
      <symbol id="icon-menu_40px" viewBox="0 0 32 32">
      <path d="M6.4 11.736v-2.136h19.2v2.136h-19.2zM6.4 17.064h19.2v-2.128h-19.2v2.128zM6.4 22.4h19.2v-2.136h-19.2v2.136z"></path>
      </symbol>
      <symbol id="icon-close_40px" viewBox="0 0 32 32">
      <path d="M23.736 10.304l-1.504-1.504-5.968 5.96-5.96-5.96-1.504 1.504 5.96 5.96-5.96 5.976 1.504 1.504 5.96-5.968 5.968 5.968 1.504-1.504-5.968-5.968 5.968-5.96z"></path>
      </symbol>
 </defs>
</svg>
